<mxfile host="app.diagrams.net" modified="2024-06-09T14:15:26.370Z" agent="Mozilla/5.0 (Macintosh; Intel Mac OS X 10_15_7) AppleWebKit/537.36 (KHTML, like Gecko) Chrome/125.0.0.0 Safari/537.36" version="24.5.2" etag="s_yzW1Pc-lY2RqgLUkp5" type="github">
  <diagram name="페이지-1" id="q3WC-MMr1X4rmohbHNEw">
    <mxGraphModel>
      <root>
        <mxCell id="0" />
        <mxCell id="1" parent="0" />
      </root>
    </mxGraphModel>
  </diagram>
</mxfile>
